<svg width="245" height="140" viewBox="0 0 245 140" fill="none" xmlns="http://www.w3.org/2000/svg">
<path d="M11.9737 140V116.053M23.9474 128.026H0H23.9474Z" stroke="#8BD2BD" stroke-width="1.84211" stroke-miterlimit="10"/>
<path d="M11.9737 81.0526V57.1053M23.9474 69.0789H0H23.9474Z" stroke="#8BD2BD" stroke-width="1.84211" stroke-miterlimit="10"/>
<path d="M11.9737 23.9474V0M23.9474 11.9737H0H23.9474Z" stroke="#8BD2BD" stroke-width="1.84211" stroke-miterlimit="10"/>
<path d="M11.9737 140V116.053M23.9474 128.026H0H23.9474Z" stroke="#010316" stroke-width="3.68421" stroke-miterlimit="10"/>
<path d="M11.9737 81.0526V57.1053M23.9474 69.0789H0H23.9474Z" stroke="#010316" stroke-width="3.68421" stroke-miterlimit="10"/>
<path d="M11.9737 23.9474V0M23.9474 11.9737H0H23.9474Z" stroke="#010316" stroke-width="3.68421" stroke-miterlimit="10"/>
<path d="M67.2368 140V116.053M79.2105 128.026H55.2631H79.2105Z" stroke="#8BD2BD" stroke-width="1.84211" stroke-miterlimit="10"/>
<path d="M67.2368 81.0526V57.1053M79.2105 69.0789H55.2631H79.2105Z" stroke="#8BD2BD" stroke-width="1.84211" stroke-miterlimit="10"/>
<path d="M67.2368 23.9474V0M79.2105 11.9737H55.2632H79.2105Z" stroke="#8BD2BD" stroke-width="1.84211" stroke-miterlimit="10"/>
<path d="M67.2368 140V116.053M79.2105 128.026H55.2631H79.2105Z" stroke="#010316" stroke-width="3.68421" stroke-miterlimit="10"/>
<path d="M67.2368 81.0526V57.1053M79.2105 69.0789H55.2631H79.2105Z" stroke="#010316" stroke-width="3.68421" stroke-miterlimit="10"/>
<path d="M67.2368 23.9474V0M79.2105 11.9737H55.2632H79.2105Z" stroke="#010316" stroke-width="3.68421" stroke-miterlimit="10"/>
<path d="M122.5 81.0526V57.1053M134.474 69.0789H110.526H134.474Z" stroke="#8BD2BD" stroke-width="1.84211" stroke-miterlimit="10"/>
<path d="M122.5 23.9474V0M134.474 11.9737H110.526H134.474Z" stroke="#8BD2BD" stroke-width="1.84211" stroke-miterlimit="10"/>
<path d="M122.5 81.0526V57.1053M134.474 69.0789H110.526H134.474Z" stroke="#1D262D" stroke-width="3.68421" stroke-miterlimit="10"/>
<path d="M122.5 23.9474V0M134.474 11.9737H110.526H134.474Z" stroke="#010316" stroke-width="3.68421" stroke-miterlimit="10"/>
<path d="M177.763 81.0526V57.1053M189.737 69.0789H165.789H189.737Z" stroke="#8BD2BD" stroke-width="1.84211" stroke-miterlimit="10"/>
<path d="M177.763 23.9474V0M189.737 11.9737H165.789H189.737Z" stroke="#8BD2BD" stroke-width="1.84211" stroke-miterlimit="10"/>
<path d="M177.763 81.0526V57.1053M189.737 69.0789H165.789H189.737Z" stroke="#010316" stroke-width="3.68421" stroke-miterlimit="10"/>
<path d="M177.763 23.9474V0M189.737 11.9737H165.789H189.737Z" stroke="#010316" stroke-width="3.68421" stroke-miterlimit="10"/>
<path d="M233.026 81.0526V57.1053M245 69.0789H221.053H245Z" stroke="#8BD2BD" stroke-width="1.84211" stroke-miterlimit="10"/>
<path d="M233.026 23.9474V0M245 11.9737H221.053H245Z" stroke="#8BD2BD" stroke-width="1.84211" stroke-miterlimit="10"/>
<path d="M233.026 81.0526V57.1053M245 69.0789H221.053H245Z" stroke="#010316" stroke-width="3.68421" stroke-miterlimit="10"/>
<path d="M233.026 23.9474V0M245 11.9737H221.053H245Z" stroke="#010316" stroke-width="3.68421" stroke-miterlimit="10"/>
</svg>
